<?xml version="1.0" standalone="no"?><!DOCTYPE svg PUBLIC "-//W3C//DTD SVG 1.1//EN" "http://www.w3.org/Graphics/SVG/1.1/DTD/svg11.dtd"><svg t="1651891589401" class="icon" viewBox="0 0 1024 1024" version="1.1" xmlns="http://www.w3.org/2000/svg" p-id="2342" xmlns:xlink="http://www.w3.org/1999/xlink" width="64" height="64"><defs><style type="text/css">@font-face { font-family: "Leelawadee UI Web"; src: url("https://static2.sharepointonline.com/files/fabric/assets/fonts/leelawadeeui-thai/leelawadeeui-light.woff2") format("woff2"), url("https://static2.sharepointonline.com/files/fabric/assets/fonts/leelawadeeui-thai/leelawadeeui-light.woff") format("woff"); font-weight: 100; font-style: normal; font-display: swap; }
@font-face { font-family: "Leelawadee UI Web"; src: url("https://static2.sharepointonline.com/files/fabric/assets/fonts/leelawadeeui-thai/leelawadeeui-semilight.woff2") format("woff2"), url("https://static2.sharepointonline.com/files/fabric/assets/fonts/leelawadeeui-thai/leelawadeeui-semilight.woff") format("woff"); font-weight: 300; font-style: normal; font-display: swap; }
@font-face { font-family: "Leelawadee UI Web"; src: url("https://static2.sharepointonline.com/files/fabric/assets/fonts/leelawadeeui-thai/leelawadeeui-regular.woff2") format("woff2"), url("https://static2.sharepointonline.com/files/fabric/assets/fonts/leelawadeeui-thai/leelawadeeui-regular.woff") format("woff"); font-weight: 400; font-style: normal; font-display: swap; }
@font-face { font-family: "Leelawadee UI Web"; src: url("https://static2.sharepointonline.com/files/fabric/assets/fonts/leelawadeeui-thai/leelawadeeui-semibold.woff2") format("woff2"), url("https://static2.sharepointonline.com/files/fabric/assets/fonts/leelawadeeui-thai/leelawadeeui-semibold.woff") format("woff"); font-weight: 600; font-style: normal; font-display: swap; }
@font-face { font-family: "Leelawadee UI Web"; src: url("https://static2.sharepointonline.com/files/fabric/assets/fonts/leelawadeeui-thai/leelawadeeui-bold.woff2") format("woff2"), url("https://static2.sharepointonline.com/files/fabric/assets/fonts/leelawadeeui-thai/leelawadeeui-bold.woff") format("woff"); font-weight: 700; font-style: normal; font-display: swap; }
@font-face { font-family: "Segoe UI Web (Arabic)"; src: url("https://static2.sharepointonline.com/files/fabric/assets/fonts/segoeui-arabic/segoeui-light.woff2") format("woff2"), url("https://static2.sharepointonline.com/files/fabric/assets/fonts/segoeui-arabic/segoeui-light.woff") format("woff"); font-weight: 100; font-style: normal; font-display: swap; }
@font-face { font-family: "Segoe UI Web (Arabic)"; src: url("https://static2.sharepointonline.com/files/fabric/assets/fonts/segoeui-arabic/segoeui-semilight.woff2") format("woff2"), url("https://static2.sharepointonline.com/files/fabric/assets/fonts/segoeui-arabic/segoeui-semilight.woff") format("woff"); font-weight: 300; font-style: normal; font-display: swap; }
@font-face { font-family: "Segoe UI Web (Arabic)"; src: url("https://static2.sharepointonline.com/files/fabric/assets/fonts/segoeui-arabic/segoeui-regular.woff2") format("woff2"), url("https://static2.sharepointonline.com/files/fabric/assets/fonts/segoeui-arabic/segoeui-regular.woff") format("woff"); font-weight: 400; font-style: normal; font-display: swap; }
@font-face { font-family: "Segoe UI Web (Arabic)"; src: url("https://static2.sharepointonline.com/files/fabric/assets/fonts/segoeui-arabic/segoeui-semibold.woff2") format("woff2"), url("https://static2.sharepointonline.com/files/fabric/assets/fonts/segoeui-arabic/segoeui-semibold.woff") format("woff"); font-weight: 600; font-style: normal; font-display: swap; }
@font-face { font-family: "Segoe UI Web (Arabic)"; src: url("https://static2.sharepointonline.com/files/fabric/assets/fonts/segoeui-arabic/segoeui-bold.woff2") format("woff2"), url("https://static2.sharepointonline.com/files/fabric/assets/fonts/segoeui-arabic/segoeui-bold.woff") format("woff"); font-weight: 700; font-style: normal; font-display: swap; }
@font-face { font-family: "Segoe UI Web (Cyrillic)"; src: url("https://static2.sharepointonline.com/files/fabric/assets/fonts/segoeui-cyrillic/segoeui-light.woff2") format("woff2"), url("https://static2.sharepointonline.com/files/fabric/assets/fonts/segoeui-cyrillic/segoeui-light.woff") format("woff"); font-weight: 100; font-style: normal; font-display: swap; }
@font-face { font-family: "Segoe UI Web (Cyrillic)"; src: url("https://static2.sharepointonline.com/files/fabric/assets/fonts/segoeui-cyrillic/segoeui-semilight.woff2") format("woff2"), url("https://static2.sharepointonline.com/files/fabric/assets/fonts/segoeui-cyrillic/segoeui-semilight.woff") format("woff"); font-weight: 300; font-style: normal; font-display: swap; }
@font-face { font-family: "Segoe UI Web (Cyrillic)"; src: url("https://static2.sharepointonline.com/files/fabric/assets/fonts/segoeui-cyrillic/segoeui-regular.woff2") format("woff2"), url("https://static2.sharepointonline.com/files/fabric/assets/fonts/segoeui-cyrillic/segoeui-regular.woff") format("woff"); font-weight: 400; font-style: normal; font-display: swap; }
@font-face { font-family: "Segoe UI Web (Cyrillic)"; src: url("https://static2.sharepointonline.com/files/fabric/assets/fonts/segoeui-cyrillic/segoeui-semibold.woff2") format("woff2"), url("https://static2.sharepointonline.com/files/fabric/assets/fonts/segoeui-cyrillic/segoeui-semibold.woff") format("woff"); font-weight: 600; font-style: normal; font-display: swap; }
@font-face { font-family: "Segoe UI Web (Cyrillic)"; src: url("https://static2.sharepointonline.com/files/fabric/assets/fonts/segoeui-cyrillic/segoeui-bold.woff2") format("woff2"), url("https://static2.sharepointonline.com/files/fabric/assets/fonts/segoeui-cyrillic/segoeui-bold.woff") format("woff"); font-weight: 700; font-style: normal; font-display: swap; }
@font-face { font-family: "Segoe UI Web (East European)"; src: url("https://static2.sharepointonline.com/files/fabric/assets/fonts/segoeui-easteuropean/segoeui-light.woff2") format("woff2"), url("https://static2.sharepointonline.com/files/fabric/assets/fonts/segoeui-easteuropean/segoeui-light.woff") format("woff"); font-weight: 100; font-style: normal; font-display: swap; }
@font-face { font-family: "Segoe UI Web (East European)"; src: url("https://static2.sharepointonline.com/files/fabric/assets/fonts/segoeui-easteuropean/segoeui-semilight.woff2") format("woff2"), url("https://static2.sharepointonline.com/files/fabric/assets/fonts/segoeui-easteuropean/segoeui-semilight.woff") format("woff"); font-weight: 300; font-style: normal; font-display: swap; }
@font-face { font-family: "Segoe UI Web (East European)"; src: url("https://static2.sharepointonline.com/files/fabric/assets/fonts/segoeui-easteuropean/segoeui-regular.woff2") format("woff2"), url("https://static2.sharepointonline.com/files/fabric/assets/fonts/segoeui-easteuropean/segoeui-regular.woff") format("woff"); font-weight: 400; font-style: normal; font-display: swap; }
@font-face { font-family: "Segoe UI Web (East European)"; src: url("https://static2.sharepointonline.com/files/fabric/assets/fonts/segoeui-easteuropean/segoeui-semibold.woff2") format("woff2"), url("https://static2.sharepointonline.com/files/fabric/assets/fonts/segoeui-easteuropean/segoeui-semibold.woff") format("woff"); font-weight: 600; font-style: normal; font-display: swap; }
@font-face { font-family: "Segoe UI Web (East European)"; src: url("https://static2.sharepointonline.com/files/fabric/assets/fonts/segoeui-easteuropean/segoeui-bold.woff2") format("woff2"), url("https://static2.sharepointonline.com/files/fabric/assets/fonts/segoeui-easteuropean/segoeui-bold.woff") format("woff"); font-weight: 700; font-style: normal; font-display: swap; }
@font-face { font-family: "Segoe UI Web (Greek)"; src: url("https://static2.sharepointonline.com/files/fabric/assets/fonts/segoeui-greek/segoeui-light.woff2") format("woff2"), url("https://static2.sharepointonline.com/files/fabric/assets/fonts/segoeui-greek/segoeui-light.woff") format("woff"); font-weight: 100; font-style: normal; font-display: swap; }
@font-face { font-family: "Segoe UI Web (Greek)"; src: url("https://static2.sharepointonline.com/files/fabric/assets/fonts/segoeui-greek/segoeui-semilight.woff2") format("woff2"), url("https://static2.sharepointonline.com/files/fabric/assets/fonts/segoeui-greek/segoeui-semilight.woff") format("woff"); font-weight: 300; font-style: normal; font-display: swap; }
@font-face { font-family: "Segoe UI Web (Greek)"; src: url("https://static2.sharepointonline.com/files/fabric/assets/fonts/segoeui-greek/segoeui-regular.woff2") format("woff2"), url("https://static2.sharepointonline.com/files/fabric/assets/fonts/segoeui-greek/segoeui-regular.woff") format("woff"); font-weight: 400; font-style: normal; font-display: swap; }
@font-face { font-family: "Segoe UI Web (Greek)"; src: url("https://static2.sharepointonline.com/files/fabric/assets/fonts/segoeui-greek/segoeui-semibold.woff2") format("woff2"), url("https://static2.sharepointonline.com/files/fabric/assets/fonts/segoeui-greek/segoeui-semibold.woff") format("woff"); font-weight: 600; font-style: normal; font-display: swap; }
@font-face { font-family: "Segoe UI Web (Greek)"; src: url("https://static2.sharepointonline.com/files/fabric/assets/fonts/segoeui-greek/segoeui-bold.woff2") format("woff2"), url("https://static2.sharepointonline.com/files/fabric/assets/fonts/segoeui-greek/segoeui-bold.woff") format("woff"); font-weight: 700; font-style: normal; font-display: swap; }
@font-face { font-family: "Segoe UI Web (Hebrew)"; src: url("https://static2.sharepointonline.com/files/fabric/assets/fonts/segoeui-hebrew/segoeui-light.woff2") format("woff2"), url("https://static2.sharepointonline.com/files/fabric/assets/fonts/segoeui-hebrew/segoeui-light.woff") format("woff"); font-weight: 100; font-style: normal; font-display: swap; }
@font-face { font-family: "Segoe UI Web (Hebrew)"; src: url("https://static2.sharepointonline.com/files/fabric/assets/fonts/segoeui-hebrew/segoeui-semilight.woff2") format("woff2"), url("https://static2.sharepointonline.com/files/fabric/assets/fonts/segoeui-hebrew/segoeui-semilight.woff") format("woff"); font-weight: 300; font-style: normal; font-display: swap; }
@font-face { font-family: "Segoe UI Web (Hebrew)"; src: url("https://static2.sharepointonline.com/files/fabric/assets/fonts/segoeui-hebrew/segoeui-regular.woff2") format("woff2"), url("https://static2.sharepointonline.com/files/fabric/assets/fonts/segoeui-hebrew/segoeui-regular.woff") format("woff"); font-weight: 400; font-style: normal; font-display: swap; }
@font-face { font-family: "Segoe UI Web (Hebrew)"; src: url("https://static2.sharepointonline.com/files/fabric/assets/fonts/segoeui-hebrew/segoeui-semibold.woff2") format("woff2"), url("https://static2.sharepointonline.com/files/fabric/assets/fonts/segoeui-hebrew/segoeui-semibold.woff") format("woff"); font-weight: 600; font-style: normal; font-display: swap; }
@font-face { font-family: "Segoe UI Web (Hebrew)"; src: url("https://static2.sharepointonline.com/files/fabric/assets/fonts/segoeui-hebrew/segoeui-bold.woff2") format("woff2"), url("https://static2.sharepointonline.com/files/fabric/assets/fonts/segoeui-hebrew/segoeui-bold.woff") format("woff"); font-weight: 700; font-style: normal; font-display: swap; }
@font-face { font-family: "Segoe UI Web (Vietnamese)"; src: url("https://static2.sharepointonline.com/files/fabric/assets/fonts/segoeui-vietnamese/segoeui-light.woff2") format("woff2"), url("https://static2.sharepointonline.com/files/fabric/assets/fonts/segoeui-vietnamese/segoeui-light.woff") format("woff"); font-weight: 100; font-style: normal; font-display: swap; }
@font-face { font-family: "Segoe UI Web (Vietnamese)"; src: url("https://static2.sharepointonline.com/files/fabric/assets/fonts/segoeui-vietnamese/segoeui-semilight.woff2") format("woff2"), url("https://static2.sharepointonline.com/files/fabric/assets/fonts/segoeui-vietnamese/segoeui-semilight.woff") format("woff"); font-weight: 300; font-style: normal; font-display: swap; }
@font-face { font-family: "Segoe UI Web (Vietnamese)"; src: url("https://static2.sharepointonline.com/files/fabric/assets/fonts/segoeui-vietnamese/segoeui-regular.woff2") format("woff2"), url("https://static2.sharepointonline.com/files/fabric/assets/fonts/segoeui-vietnamese/segoeui-regular.woff") format("woff"); font-weight: 400; font-style: normal; font-display: swap; }
@font-face { font-family: "Segoe UI Web (Vietnamese)"; src: url("https://static2.sharepointonline.com/files/fabric/assets/fonts/segoeui-vietnamese/segoeui-semibold.woff2") format("woff2"), url("https://static2.sharepointonline.com/files/fabric/assets/fonts/segoeui-vietnamese/segoeui-semibold.woff") format("woff"); font-weight: 600; font-style: normal; font-display: swap; }
@font-face { font-family: "Segoe UI Web (Vietnamese)"; src: url("https://static2.sharepointonline.com/files/fabric/assets/fonts/segoeui-vietnamese/segoeui-bold.woff2") format("woff2"), url("https://static2.sharepointonline.com/files/fabric/assets/fonts/segoeui-vietnamese/segoeui-bold.woff") format("woff"); font-weight: 700; font-style: normal; font-display: swap; }
@font-face { font-family: "Segoe UI Web (West European)"; src: local("Segoe UI Light"), url("https://static2.sharepointonline.com/files/fabric/assets/fonts/segoeui-westeuropean/segoeui-light.woff2") format("woff2"), url("https://static2.sharepointonline.com/files/fabric/assets/fonts/segoeui-westeuropean/segoeui-light.woff") format("woff"); font-weight: 100; font-style: normal; font-display: swap; }
@font-face { font-family: "Segoe UI Web (West European)"; src: local("Segoe UI SemiLight"), url("https://static2.sharepointonline.com/files/fabric/assets/fonts/segoeui-westeuropean/segoeui-semilight.woff2") format("woff2"), url("https://static2.sharepointonline.com/files/fabric/assets/fonts/segoeui-westeuropean/segoeui-semilight.woff") format("woff"); font-weight: 300; font-style: normal; font-display: swap; }
@font-face { font-family: "Segoe UI Web (West European)"; src: local("Segoe UI"), url("https://static2.sharepointonline.com/files/fabric/assets/fonts/segoeui-westeuropean/segoeui-regular.woff2") format("woff2"), url("https://static2.sharepointonline.com/files/fabric/assets/fonts/segoeui-westeuropean/segoeui-regular.woff") format("woff"); font-weight: 400; font-style: normal; font-display: swap; }
@font-face { font-family: "Segoe UI Web (West European)"; src: local("Segoe UI SemiBold"), url("https://static2.sharepointonline.com/files/fabric/assets/fonts/segoeui-westeuropean/segoeui-semibold.woff2") format("woff2"), url("https://static2.sharepointonline.com/files/fabric/assets/fonts/segoeui-westeuropean/segoeui-semibold.woff") format("woff"); font-weight: 600; font-style: normal; font-display: swap; }
@font-face { font-family: "Segoe UI Web (West European)"; src: local("Segoe UI Bold"), url("https://static2.sharepointonline.com/files/fabric/assets/fonts/segoeui-westeuropean/segoeui-bold.woff2") format("woff2"), url("https://static2.sharepointonline.com/files/fabric/assets/fonts/segoeui-westeuropean/segoeui-bold.woff") format("woff"); font-weight: 700; font-style: normal; font-display: swap; }
@font-face { src: url("https://static2.sharepointonline.com/files/fabric/assets/fonts/selawik/selawik-light.woff2") format("woff2"), url("https://static2.sharepointonline.com/files/fabric/assets/fonts/selawik/selawik-light.woff") format("woff"); font-weight: 100; font-style: normal; font-display: swap; }
@font-face { src: url("https://static2.sharepointonline.com/files/fabric/assets/fonts/selawik/selawik-semilight.woff2") format("woff2"), url("https://static2.sharepointonline.com/files/fabric/assets/fonts/selawik/selawik-semilight.woff") format("woff"); font-weight: 300; font-style: normal; font-display: swap; }
@font-face { src: url("https://static2.sharepointonline.com/files/fabric/assets/fonts/selawik/selawik-regular.woff2") format("woff2"), url("https://static2.sharepointonline.com/files/fabric/assets/fonts/selawik/selawik-regular.woff") format("woff"); font-weight: 400; font-style: normal; font-display: swap; }
@font-face { src: url("https://static2.sharepointonline.com/files/fabric/assets/fonts/selawik/selawik-semibold.woff2") format("woff2"), url("https://static2.sharepointonline.com/files/fabric/assets/fonts/selawik/selawik-semibold.woff") format("woff"); font-weight: 600; font-style: normal; font-display: swap; }
@font-face { src: url("https://static2.sharepointonline.com/files/fabric/assets/fonts/selawik/selawik-bold.woff2") format("woff2"), url("https://static2.sharepointonline.com/files/fabric/assets/fonts/selawik/selawik-bold.woff") format("woff"); font-weight: 700; font-style: normal; font-display: swap; }
@font-face { font-family: "Segoe UI Web (Armenian)"; src: url("https://static2.sharepointonline.com/files/fabric/assets/fonts/segoeui-armenian/segoeui-light.woff2") format("woff2"), url("https://static2.sharepointonline.com/files/fabric/assets/fonts/segoeui-armenian/segoeui-light.woff") format("woff"); font-weight: 100; font-style: normal; font-display: swap; }
@font-face { font-family: "Segoe UI Web (Armenian)"; src: url("https://static2.sharepointonline.com/files/fabric/assets/fonts/segoeui-armenian/segoeui-semilight.woff2") format("woff2"), url("https://static2.sharepointonline.com/files/fabric/assets/fonts/segoeui-armenian/segoeui-semilight.woff") format("woff"); font-weight: 300; font-style: normal; font-display: swap; }
@font-face { font-family: "Segoe UI Web (Armenian)"; src: url("https://static2.sharepointonline.com/files/fabric/assets/fonts/segoeui-armenian/segoeui-regular.woff2") format("woff2"), url("https://static2.sharepointonline.com/files/fabric/assets/fonts/segoeui-armenian/segoeui-regular.woff") format("woff"); font-weight: 400; font-style: normal; font-display: swap; }
@font-face { font-family: "Segoe UI Web (Armenian)"; src: url("https://static2.sharepointonline.com/files/fabric/assets/fonts/segoeui-armenian/segoeui-semibold.woff2") format("woff2"), url("https://static2.sharepointonline.com/files/fabric/assets/fonts/segoeui-armenian/segoeui-semibold.woff") format("woff"); font-weight: 600; font-style: normal; font-display: swap; }
@font-face { font-family: "Segoe UI Web (Armenian)"; src: url("https://static2.sharepointonline.com/files/fabric/assets/fonts/segoeui-armenian/segoeui-bold.woff2") format("woff2"), url("https://static2.sharepointonline.com/files/fabric/assets/fonts/segoeui-armenian/segoeui-bold.woff") format("woff"); font-weight: 700; font-style: normal; font-display: swap; }
@font-face { font-family: "Segoe UI Web (Georgian)"; src: url("https://static2.sharepointonline.com/files/fabric/assets/fonts/segoeui-georgian/segoeui-light.woff2") format("woff2"), url("https://static2.sharepointonline.com/files/fabric/assets/fonts/segoeui-georgian/segoeui-light.woff") format("woff"); font-weight: 100; font-style: normal; font-display: swap; }
@font-face { font-family: "Segoe UI Web (Georgian)"; src: url("https://static2.sharepointonline.com/files/fabric/assets/fonts/segoeui-georgian/segoeui-semilight.woff2") format("woff2"), url("https://static2.sharepointonline.com/files/fabric/assets/fonts/segoeui-georgian/segoeui-semilight.woff") format("woff"); font-weight: 300; font-style: normal; font-display: swap; }
@font-face { font-family: "Segoe UI Web (Georgian)"; src: url("https://static2.sharepointonline.com/files/fabric/assets/fonts/segoeui-georgian/segoeui-regular.woff2") format("woff2"), url("https://static2.sharepointonline.com/files/fabric/assets/fonts/segoeui-georgian/segoeui-regular.woff") format("woff"); font-weight: 400; font-style: normal; font-display: swap; }
@font-face { font-family: "Segoe UI Web (Georgian)"; src: url("https://static2.sharepointonline.com/files/fabric/assets/fonts/segoeui-georgian/segoeui-semibold.woff2") format("woff2"), url("https://static2.sharepointonline.com/files/fabric/assets/fonts/segoeui-georgian/segoeui-semibold.woff") format("woff"); font-weight: 600; font-style: normal; font-display: swap; }
@font-face { font-family: "Segoe UI Web (Georgian)"; src: url("https://static2.sharepointonline.com/files/fabric/assets/fonts/segoeui-georgian/segoeui-bold.woff2") format("woff2"), url("https://static2.sharepointonline.com/files/fabric/assets/fonts/segoeui-georgian/segoeui-bold.woff") format("woff"); font-weight: 700; font-style: normal; font-display: swap; }
@font-face { font-family: "Leelawadee UI Web"; src: url("https://static2.sharepointonline.com/files/fabric/assets/fonts/leelawadeeui-thai/leelawadeeui-semilight.woff2") format("woff2"), url("https://static2.sharepointonline.com/files/fabric/assets/fonts/leelawadeeui-thai/leelawadeeui-semilight.woff") format("woff"); font-weight: 100; font-style: normal; font-display: swap; }
@font-face { font-family: "Leelawadee UI Web"; src: url("https://static2.sharepointonline.com/files/fabric/assets/fonts/leelawadeeui-thai/leelawadeeui-bold.woff2") format("woff2"), url("https://static2.sharepointonline.com/files/fabric/assets/fonts/leelawadeeui-thai/leelawadeeui-bold.woff") format("woff"); font-weight: 600; font-style: normal; font-display: swap; }
@font-face { font-family: feedback-iconfont; src: url("//at.alicdn.com/t/font_1031158_u69w8yhxdu.woff2?t=1630033759944") format("woff2"), url("//at.alicdn.com/t/font_1031158_u69w8yhxdu.woff?t=1630033759944") format("woff"), url("//at.alicdn.com/t/font_1031158_u69w8yhxdu.ttf?t=1630033759944") format("truetype"); }
@font-face { font-family: FabricMDL2Icons; src: url("fabric-icons.woff") format("woff"); }
@font-face { font-family: FabricMDL2Icons; src: url("fabric-icons.woff") format("woff"); }
@font-face { font-family: FabricMDL2Icons; src: url("fabric-icons.woff") format("woff"); }
@font-face { font-family: FabricMDL2Icons; src: url("fabric-icons.woff") format("woff"); }
</style></defs><path d="M510.777 513.223m-418.146 0a418.146 418.146 0 1 0 836.292 0 418.146 418.146 0 1 0-836.292 0Z" fill="#FFD7D7" p-id="2343"></path><path d="M327.375 296.727c7.937 0 14.56-6.623 14.56-14.56s-6.623-14.56-14.56-14.56-14.56 6.623-14.56 14.56 6.623 14.56 14.56 14.56z" fill="#280D0D" p-id="2344"></path><path d="M168.094 288.237c0 2.2 242.144 0.544 277.826 0 35.682-0.543 195.425-0.108 195.425-0.108s4.88 164.407 4.88 184.763V580.94H166.868l1.226-292.703z" fill="#FFD96E" p-id="2345"></path><path d="M646.225 587.411H166.868c-1.292 0-2.53-0.687-3.441-1.908-0.911-1.223-1.419-2.877-1.412-4.6l1.227-292.703c0.015-3.56 2.184-6.435 4.853-6.435 0.455-0.028 0.922 0.088 1.351 0.253 2.674 0.34 16.78 0.857 77.705 0.857 75.652 0 177.68-0.789 198.715-1.111 11.908-0.181 38.806-0.273 79.948-0.273 54.276 0 114.936 0.164 115.542 0.167 2.602 0.007 4.736 2.749 4.84 6.215 0.199 6.719 4.884 164.767 4.884 185.019V580.94c-0.002 3.574-2.175 6.471-4.855 6.471zM171.748 574.47h469.623V472.892c0-17.755-3.806-148.14-4.692-178.304a48560.25 48560.25 0 0 0-110.866-0.153c-41.104 0-67.966 0.092-79.837 0.273-21.051 0.32-123.14 1.111-198.826 1.111-24.157 0-43.112-0.083-56.339-0.245-7.328-0.089-12.975-0.207-16.784-0.345-0.388-0.015-0.757-0.028-1.108-0.043l-1.171 279.284z m0.224-290.125c0.613 1.083 0.976 2.431 0.976 3.892-0.001-1.584-0.4-2.889-0.976-3.892z" fill="#280D0D" p-id="2346"></path><path d="M178.519 582.558l8.863 168.438h220.922V582.558z" fill="#455BC4" p-id="2347"></path><path d="M408.304 755.849H187.382a4.854 4.854 0 0 1-4.847-4.598l-8.863-168.438a4.853 4.853 0 0 1 4.847-5.108h229.785a4.853 4.853 0 0 1 4.853 4.853v168.438a4.853 4.853 0 0 1-4.853 4.853z m-216.317-9.706h211.464V587.411H183.634l8.353 158.732z" fill="#280D0D" p-id="2348"></path><path d="M207.377 590.801l187.687 5.03v161.806H217.395z" fill="#455BC4" p-id="2349"></path><path d="M395.064 762.49H217.395c-2.567 0-4.69-2-4.844-4.562l-10.018-166.836a4.852 4.852 0 0 1 4.974-5.143l187.687 5.03a4.854 4.854 0 0 1 4.723 4.852v161.806a4.853 4.853 0 0 1-4.853 4.853z m-173.099-9.706h168.246V600.556l-177.672-4.762 9.426 156.99z" fill="#280D0D" p-id="2350"></path><path d="M199.505 600.08l7.872-9.279 10.018 166.836-10.684-8.361z" fill="#455BC4" p-id="2351"></path><path d="M217.396 762.49a4.849 4.849 0 0 1-2.991-1.031l-10.684-8.361a4.854 4.854 0 0 1-1.857-3.588l-7.206-149.197a4.858 4.858 0 0 1 1.147-3.374l7.872-9.279a4.853 4.853 0 1 1 8.545 2.849l9.992 166.391a4.853 4.853 0 0 1-4.798 5.589l-0.02 0.001z m-5.945-15.667l0.454 0.355-2.231-37.155 1.777 36.8z" fill="#280D0D" p-id="2352"></path><path d="M156.784 582.558l7.245 154.371 23.353 14.067-8.863-168.438z" fill="#455BC4" p-id="2353"></path><path d="M187.382 755.849a4.848 4.848 0 0 1-2.504-0.696l-23.354-14.066a4.852 4.852 0 0 1-2.344-3.93l-7.245-154.372a4.854 4.854 0 0 1 4.847-5.081h21.735a4.854 4.854 0 0 1 4.847 4.598l8.863 168.438a4.855 4.855 0 0 1-4.845 5.109z m-18.627-21.738l13.301 8.011-8.141-154.71h-12.044l6.884 146.699zM359.977 653.302H316.53a4.853 4.853 0 0 0-4.853 4.853v61.948c-0.191 0.521-0.312 1.078-0.312 1.665s0.121 1.144 0.312 1.665v34.204a4.853 4.853 0 0 0 4.853 4.853h43.447a4.853 4.853 0 0 0 4.853-4.853v-99.482a4.853 4.853 0 0 0-4.853-4.853z m-24.424 63.613l-0.214-24.642h3.147v24.642h-2.933z m-9.707 0h-4.464v-24.642h4.25l0.214 24.642z m22.346-24.642h6.931v24.642h-6.931v-24.642z m-9.706-9.706h-3.231l-0.17-19.559h3.401v19.559z m-2.849 44.054h2.849v24.375c0 0.633 0.13 1.234 0.35 1.788h-3.334a4.825 4.825 0 0 0 0.346-1.83l-0.211-24.333z m19.486-44.054h-6.931v-19.559h6.931v19.559z m-29.744-19.559l0.17 19.559h-4.166v-19.559h3.996z m-3.997 63.613h4.548l0.212 24.417c0.005 0.618 0.137 1.204 0.352 1.746h-5.112v-26.163z m26.46 26.163a4.83 4.83 0 0 0 0.35-1.788v-24.375h6.931v26.163h-7.281z" fill="#280D0D" p-id="2354"></path><path d="M437.797 751.707h-23.615a1.941 1.941 0 0 1-1.941-1.941v-27.998c0-1.072 0.869-1.941 1.941-1.941h23.615c1.072 0 1.941 0.869 1.941 1.941v27.998a1.94 1.94 0 0 1-1.941 1.941z m-21.673-3.883h19.732v-24.115h-19.732v24.115z" fill="#FF76C4" p-id="2355"></path><path d="M462.127 752.937c-0.038 0-0.077-0.001-0.115-0.003l-20.752-1.23a1.942 1.942 0 0 1-1.827-1.938v-27.998c0-1.072 0.869-1.941 1.941-1.941h20.752c1.072 0 1.941 0.869 1.941 1.941v29.228a1.943 1.943 0 0 1-1.94 1.941z m-18.811-5.001l16.87 1v-25.227h-16.87v24.227z" fill="#FF76C4" p-id="2356"></path><path d="M268.196 183.757h208.78v202.329h-208.78z" fill="#FC9F92" p-id="2357"></path><path d="M476.976 390.939h-208.78a4.853 4.853 0 0 1-4.853-4.853v-202.33a4.853 4.853 0 0 1 4.853-4.853h208.78a4.853 4.853 0 0 1 4.853 4.853v202.33a4.853 4.853 0 0 1-4.853 4.853z m-203.927-9.706h199.074V188.61H273.049v192.623z" fill="#280D0D" p-id="2358"></path><path d="M268.196 183.756l-25.553 108.029 25.553-0.809z" fill="#455BC4" p-id="2359"></path><path d="M242.642 296.638a4.854 4.854 0 0 1-4.722-5.97l25.553-108.029a4.853 4.853 0 0 1 9.576 1.117v107.22a4.853 4.853 0 0 1-4.699 4.851l-25.553 0.809c-0.052 0.002-0.104 0.002-0.155 0.002z m20.701-71.28l-14.518 61.376 14.518-0.46v-60.916z" fill="#280D0D" p-id="2360"></path><path d="M247.921 290.976v116.578H451.76l25.216-21.468-208.78-1.61v-93.5z" fill="#455BC4" p-id="2361"></path><path d="M451.76 412.407H247.921a4.853 4.853 0 0 1-4.853-4.853V290.976a4.853 4.853 0 0 1 4.853-4.853h20.275a4.853 4.853 0 0 1 4.853 4.853v88.684l203.965 1.573a4.853 4.853 0 0 1 3.108 8.548l-25.216 21.468a4.85 4.85 0 0 1-3.146 1.158z m-198.986-9.706h197.2l13.933-11.862-195.749-1.51a4.853 4.853 0 0 1-4.815-4.853V295.83h-10.569v106.871z" fill="#280D0D" p-id="2362"></path><path d="M475.374 386.086l1.602 21.468H451.76z" fill="#280D0D" p-id="2363"></path><path d="M476.996 412.407H451.76a4.854 4.854 0 0 1-3.265-8.444l23.613-21.468a4.852 4.852 0 0 1 8.105 3.23l1.569 21.023a4.852 4.852 0 0 1-4.786 5.659z m-12.683-9.706h7.434l-0.473-6.329-6.961 6.329z" fill="#280D0D" p-id="2364"></path><path d="M683.066 316.833s-32.895 55.137-36.842 60.844c-3.947 5.707-15.754 33.123-15.754 33.123l2.147 171.759 50.449-38.704V316.833z" fill="#32DBED" p-id="2365"></path><path d="M632.616 587.411a4.851 4.851 0 0 1-4.851-4.792l-2.146-171.759a4.833 4.833 0 0 1 0.396-1.98c1.228-2.852 12.116-28.032 16.22-33.964 3.048-4.408 25.316-41.547 36.665-60.569a4.854 4.854 0 0 1 9.021 2.487v227.021a4.855 4.855 0 0 1-1.899 3.851l-50.449 38.704a4.868 4.868 0 0 1-2.957 1.001z m2.721-175.638l2.012 161.038 40.864-31.35V334.405c-10.081 16.829-25.31 42.146-27.997 46.032-2.616 3.783-10.169 20.447-14.879 31.336z" fill="#280D0D" p-id="2366"></path><path d="M826.273 457.983l38.911 34.318v124.562l-69.23-30.892-91.599 30.892s-8.221-32.082-7.416-34.305c0.805-2.222 20.125-85.716 20.125-90.257s23.345-47.197 23.345-47.197l85.864 12.879z" fill="#455BC4" p-id="2367"></path><path d="M865.185 621.716a4.85 4.85 0 0 1-1.978-0.421l-67.499-30.12-89.802 30.286a4.853 4.853 0 0 1-6.252-3.394c-8.417-32.849-7.859-35.532-7.312-37.067 1.277-4.394 19.438-83.187 19.873-88.835 0.182-4.082 8.232-20.695 23.938-49.391a4.847 4.847 0 0 1 4.977-2.469l85.864 12.879a4.848 4.848 0 0 1 2.49 1.16l38.911 34.318a4.852 4.852 0 0 1 1.644 3.64v124.562a4.854 4.854 0 0 1-4.854 4.852z m-163.441-38.475c0.156 2.746 2.976 15.124 6.03 27.347l86.629-29.216a4.855 4.855 0 0 1 3.528 0.167l62.399 27.844V494.492l-36.193-31.922-81.093-12.163c-10.065 18.524-20.323 38.603-21.145 42.265-0.619 7.959-17.895 81.248-20.155 90.569z m-0.032 0.131a31.73 31.73 0 0 1-0.209 0.839 4.04 4.04 0 0 0 0.209-0.839z" fill="#280D0D" p-id="2368"></path><path d="M865.184 616.863l-103.47 41.292-57.359-20.646 5.736-25.778 85.863-25.76z" fill="#3A4ABA" p-id="2369"></path><path d="M761.714 663.008a4.84 4.84 0 0 1-1.644-0.287l-57.358-20.646a4.855 4.855 0 0 1-3.094-5.621l5.735-25.778a4.853 4.853 0 0 1 3.343-3.594l85.863-25.76a4.852 4.852 0 0 1 3.372 0.216l69.23 30.892a4.854 4.854 0 0 1-0.179 8.939l-103.471 41.292a4.803 4.803 0 0 1-1.797 0.347z m-51.693-28.618l51.604 18.575 91.091-36.352-57.094-25.476-81.412 24.425-4.189 18.828z" fill="#280D0D" p-id="2370"></path><path d="M710.242 687.42l126.855 74.869 3.757-20.931-130.612-77.363z" fill="#FFCEA6" p-id="2371"></path><path d="M837.098 767.142a4.86 4.86 0 0 1-2.467-0.673L707.774 691.6a4.854 4.854 0 0 1-2.387-4.18v-23.424a4.853 4.853 0 0 1 7.327-4.175l130.613 77.362a4.855 4.855 0 0 1 2.304 5.033l-3.757 20.931a4.854 4.854 0 0 1-4.776 3.995z m-122.003-82.493l118.459 69.913 1.929-10.745-120.388-71.306v12.138z" fill="#280D0D" p-id="2372"></path><path d="M755.252 630.698s16.339-11.126 23.549 3.317c0 22.796-0.692 120.067-0.692 120.067h-24.648l1.791-123.384z" fill="#FFCEA6" p-id="2373"></path><path d="M778.109 758.935h-24.648a4.852 4.852 0 0 1-4.852-4.923l1.791-123.384a4.85 4.85 0 0 1 2.121-3.941c0.741-0.505 7.464-4.933 15.076-4.933 6.775 0 12.297 3.584 15.546 10.093 0.336 0.673 0.512 1.416 0.512 2.168 0 22.552-0.685 119.128-0.691 120.102a4.856 4.856 0 0 1-4.855 4.818z m-19.724-9.706h14.905c0.137-19.526 0.637-92.639 0.657-113.984-1.559-2.608-3.552-3.785-6.351-3.785-2.672 0-5.56 1.1-7.532 2.074l-1.679 115.695z" fill="#280D0D" p-id="2374"></path><path d="M408.304 573.909l2.122 177.087 299.665 3.086s0.274-165.083 0.084-176.416l-301.871-3.757z" fill="#FFEAA9" p-id="2375"></path><path d="M710.091 758.935h-0.05l-299.665-3.086a4.854 4.854 0 0 1-4.803-4.795l-2.122-177.086c-0.016-1.308 0.497-2.566 1.422-3.491s2.133-1.437 3.492-1.42l301.871 3.757a4.854 4.854 0 0 1 4.792 4.772c0.188 11.248-0.072 169.763-0.083 176.505a4.856 4.856 0 0 1-1.442 3.444 4.862 4.862 0 0 1-3.412 1.4z m-294.869-12.744l290.023 2.987c0.04-25.266 0.214-140.52 0.111-166.719l-292.14-3.636 2.006 167.368z" fill="#280D0D" p-id="2376"></path><path d="M409.992 714.766h300.099v39.316H408.304z" fill="#455BC4" p-id="2377"></path><path d="M710.091 758.935H408.304a4.85 4.85 0 0 1-4.848-5.061l1.688-39.316a4.853 4.853 0 0 1 4.849-4.645h300.099a4.854 4.854 0 0 1 4.854 4.853v39.316a4.856 4.856 0 0 1-4.855 4.853z m-296.721-9.706h291.868v-29.61H414.641l-1.271 29.61z" fill="#280D0D" p-id="2378"></path><path d="M491.244 755.849H464.99a4.853 4.853 0 0 1-4.853-4.853v-29.228a4.853 4.853 0 0 1 4.853-4.853h28.266a4.855 4.855 0 0 1 4.842 5.187l-2.012 29.228a4.855 4.855 0 0 1-4.842 4.519z m-21.401-9.706h16.87l1.344-19.521h-18.214v19.521zM543.705 755.849a4.81 4.81 0 0 1-0.208-0.004l-28.624-1.23a4.853 4.853 0 0 1-4.645-4.849v-26.477a4.853 4.853 0 0 1 4.853-4.853h28.624a4.854 4.854 0 0 1 4.854 4.853v27.707a4.854 4.854 0 0 1-4.854 4.853z m-23.77-10.732l18.917 0.812v-17.787h-18.917v16.975z" fill="#280D0D" p-id="2379"></path><path d="M569.824 755.849h-24.688a4.854 4.854 0 0 1-4.854-4.853v-27.707a4.854 4.854 0 0 1 4.854-4.853h24.688a4.854 4.854 0 0 1 4.854 4.853v27.707a4.854 4.854 0 0 1-4.854 4.853z m-19.835-9.706h14.981v-18h-14.981v18zM623.771 755.849H596.3a4.854 4.854 0 0 1-4.854-4.853v-27.707a4.854 4.854 0 0 1 4.854-4.853h27.471a4.854 4.854 0 0 1 4.854 4.853v27.707a4.854 4.854 0 0 1-4.854 4.853z m-22.617-9.706h17.764v-18h-17.764v18z" fill="#280D0D" p-id="2380"></path><path d="M623.772 723.289h14.749v27.707h-14.749z" fill="#455BC4" p-id="2381"></path><path d="M638.521 755.849h-14.749a4.854 4.854 0 0 1-4.854-4.853v-27.707a4.854 4.854 0 0 1 4.854-4.853h14.749a4.854 4.854 0 0 1 4.854 4.853v27.707a4.855 4.855 0 0 1-4.854 4.853z m-9.896-9.706h5.042v-18h-5.042v18zM704.355 757.124h-30.413a4.854 4.854 0 0 1-4.854-4.853v-26.835a4.854 4.854 0 0 1 4.854-4.853h30.413a4.854 4.854 0 0 1 4.854 4.853v26.835a4.854 4.854 0 0 1-4.854 4.853z m-25.559-9.707h20.706v-17.129h-20.706v17.129z" fill="#280D0D" p-id="2382"></path><path d="M168.094 288.237L99.737 338.24l5.824 224.376 61.307 14.664z" fill="#FFC866" p-id="2383"></path><path d="M166.868 583.751c-0.285 0-0.572-0.033-0.857-0.101l-61.307-14.664c-2.25-0.539-3.914-3.099-3.993-6.145l-5.824-224.375c-0.063-2.441 0.91-4.723 2.516-5.897l68.357-50.004c1.509-1.103 3.341-1.057 4.818 0.113 1.478 1.173 2.379 3.303 2.369 5.596l-1.227 289.043c-0.008 1.911-0.648 3.717-1.75 4.939-0.877 0.974-1.977 1.495-3.102 1.495z m-56.593-26.581l51.772 12.384 1.147-270.351-58.504 42.796 5.585 215.171z" fill="#280D0D" p-id="2384"></path><path d="M105.561 568.815l19.029 139.081 50.209 30.957-7.931-156.295z" fill="#455BC4" p-id="2385"></path><path d="M174.799 743.706a4.848 4.848 0 0 1-2.547-0.722l-50.209-30.957a4.855 4.855 0 0 1-2.262-3.473l-19.029-139.081a4.852 4.852 0 0 1 5.87-5.393l61.307 13.743a4.855 4.855 0 0 1 3.786 4.49l7.932 156.295a4.852 4.852 0 0 1-4.848 5.098z m-45.712-38.738l40.397 24.907-7.277-143.387-50.892-11.409 17.772 129.889z" fill="#280D0D" p-id="2386"></path><path d="M410.376 755.849a4.853 4.853 0 0 1-1.016-0.123 4.835 4.835 0 0 1-1.056 0.123H187.382a4.854 4.854 0 0 1-4.847-4.598s-3.711-9.139-5.263-8.221a4.856 4.856 0 0 1-5.02-0.046l-50.209-30.957a4.855 4.855 0 0 1-2.262-3.473l-19.029-139.081c-0.018-0.133-0.023-0.266-0.03-0.399-0.002-0.031-0.01-0.06-0.011-0.091l-3.308-236.415c-8.43 9.183-27.743 100.856-28.834 103.187-1.456 3.11 22.249 277.929 36.992 295.624 14.744 17.695 82.468 48.716 82.468 48.716l20.421-0.324 480.699-8.504s9.771-5.823 16.643-12.376l-295.416-3.042z" fill="#280D0D" p-id="2387"></path><path d="M824.753 570.152l2.684-198.063-144.371-55.256v227.021z" fill="#45F2FF" p-id="2388"></path><path d="M824.754 575.005c-0.295 0-0.591-0.027-0.886-0.082L682.18 548.625a4.853 4.853 0 0 1-3.968-4.771V316.833a4.854 4.854 0 0 1 6.588-4.533l144.37 55.256a4.852 4.852 0 0 1 3.118 4.599l-2.683 198.063a4.858 4.858 0 0 1-1.775 3.687 4.847 4.847 0 0 1-3.076 1.1zM687.92 539.819l132.06 24.511 2.559-188.919-134.619-51.524v215.932z" fill="#280D0D" p-id="2389"></path><path d="M822.607 570.152l-12.881 9.661-163.502-4.83v-4.831l36.842-26.298z" fill="#455BC4" p-id="2390"></path><path d="M809.727 584.666c-0.048 0-0.096 0-0.144-0.002l-163.502-4.831a4.854 4.854 0 0 1-4.71-4.851v-4.83c0-1.568 0.758-3.039 2.034-3.95l36.842-26.298a4.846 4.846 0 0 1 3.718-0.819l139.54 26.298a4.85 4.85 0 0 1 3.828 3.669 4.85 4.85 0 0 1-1.814 4.982l-12.88 9.661a4.854 4.854 0 0 1-2.912 0.971zM654.28 570.365l153.893 4.546 2.707-2.031-126.679-23.874-29.921 21.359z" fill="#280D0D" p-id="2391"></path><path d="M338.253 289.937h75.93v72.929h-75.93z" fill="#FF7878" p-id="2392"></path><path d="M418.065 366.748h-83.694v-80.693h83.694v80.693z m-75.93-7.764H410.3V293.82h-68.165v65.164z" fill="#280D0D" p-id="2393"></path><path d="M414.187 603.685H704.22v2.912H414.187zM414.187 629.577H704.22v2.912H414.187zM414.187 658.551H704.22v2.912H414.187zM414.187 682.594H704.22v2.912H414.187z" fill="#F4CD8E" p-id="2394"></path><path d="M439.38 580.923h2.912v127.894h-2.912zM465.648 580.923h2.912v127.894h-2.912zM491.917 580.923h2.912v127.894h-2.912zM518.185 580.923h2.912v127.894h-2.912zM544.453 580.923h2.912v127.894h-2.912zM570.722 580.923h2.912v127.894h-2.912zM596.99 580.923h2.912v127.894h-2.912zM623.259 580.923h2.912v127.894h-2.912zM649.527 580.923h2.912v127.894h-2.912zM675.795 580.923h2.912v127.894h-2.912z" fill="#F4CD8E" p-id="2395"></path><path d="M128.856 704.778c11.264 0.063 22.451 1.3 33.687 1.941 1.877 0.107 1.867-2.805 0-2.912-11.236-0.641-22.423-1.879-33.687-1.941-1.878-0.01-1.877 2.902 0 2.912zM129.763 709.903c5.794 1.241 11.677 1.995 17.471 3.235 1.831 0.392 2.61-2.415 0.774-2.808-5.794-1.241-11.677-1.995-17.471-3.235-1.831-0.392-2.61 2.415-0.774 2.808zM136.881 716.374c7.971 1.38 15.899 2.555 24.006 2.64 1.879 0.02 1.877-2.892 0-2.912-7.844-0.082-15.517-1.2-23.232-2.536-1.836-0.318-2.622 2.488-0.774 2.808zM124.326 694.425c13.191 0.738 26.242 3.115 39.473 3.235 1.878 0.017 1.877-2.895 0-2.912-13.231-0.121-26.281-2.497-39.473-3.235-1.877-0.105-1.867 2.807 0 2.912zM128.469 698.902c9.415 1.308 18.831 2.585 28.315 3.287 1.874 0.139 1.861-2.774 0-2.912-9.224-0.683-18.382-1.911-27.541-3.183-1.836-0.255-2.627 2.551-0.774 2.808zM123.292 684.666c8.068 1.244 16.183 1.344 24.329 1.346 1.878 0.001 1.878-2.911 0-2.912-7.875-0.002-15.754-0.039-23.555-1.242-1.836-0.283-2.625 2.523-0.774 2.808zM123.292 688.549c6.776 1.926 13.786 2.666 20.707 3.883 1.836 0.323 2.621-2.483 0.774-2.808-6.921-1.217-13.93-1.956-20.707-3.883-1.81-0.514-2.577 2.295-0.774 2.808zM117.451 673.718c8.838 0.263 17.656 0.758 26.45 1.699 1.866 0.2 1.847-2.714 0-2.912-8.794-0.941-17.612-1.436-26.45-1.699-1.879-0.056-1.874 2.856 0 2.912zM120.605 678.571h11.405c1.878 0 1.878-2.912 0-2.912h-11.405c-1.877 0-1.877 2.912 0 2.912zM118.422 662.555c9.802-0.166 19.57 0.68 29.362 0.971 1.879 0.056 1.873-2.856 0-2.912-9.792-0.29-19.56-1.137-29.362-0.971-1.876 0.032-1.879 2.944 0 2.912zM117.936 666.923h16.258c1.878 0 1.878-2.912 0-2.912h-16.258c-1.878 0-1.878 2.912 0 2.912zM120.12 650.18c8.528 0.085 16.936 1.199 25.335 2.617 1.836 0.31 2.623-2.496 0.774-2.808-8.651-1.461-17.322-2.633-26.109-2.721-1.878-0.019-1.877 2.893 0 2.912zM120.605 655.276h12.376c1.878 0 1.878-2.912 0-2.912h-12.376c-1.877 0-1.877 2.912 0 2.912zM115.51 636.591c7.814 0.327 15.525 1.628 23.295 2.427 1.867 0.192 1.849-2.722 0-2.912-7.771-0.799-15.481-2.099-23.295-2.427-1.879-0.079-1.871 2.834 0 2.912zM116.238 643.385c8.977 0.987 17.935 2.149 26.935 2.912 1.872 0.159 1.857-2.754 0-2.912-9.001-0.763-17.958-1.925-26.935-2.912-1.866-0.205-1.846 2.71 0 2.912zM110.171 618.391a89.186 89.186 0 0 1 20.482 3.345c1.81 0.516 2.577-2.293 0.774-2.808a92.618 92.618 0 0 0-21.256-3.449c-1.878-0.085-1.87 2.827 0 2.912zM114.782 625.914h19.655c1.878 0 1.878-2.912 0-2.912h-19.655c-1.878 0-1.878 2.912 0 2.912zM117.208 631.252h13.832c1.878 0 1.878-2.912 0-2.912h-13.832c-1.878 0-1.878 2.912 0 2.912zM139.533 632.951c1.878 0 1.878-2.912 0-2.912s-1.878 2.912 0 2.912zM111.286 599.169c7.996-1.458 15.98 1.562 23.879 2.479 1.863 0.216 1.842-2.698 0-2.912-8.26-0.958-16.275-3.902-24.653-2.375-1.845 0.337-1.061 3.143 0.774 2.808zM109.928 604.317c9.08 0.084 18.107 1.152 27.178 1.456 1.879 0.063 1.873-2.849 0-2.912-9.071-0.304-18.098-1.372-27.178-1.456-1.878-0.017-1.876 2.895 0 2.912zM111.142 611.84c9.641-0.359 19.237 0.862 28.876 0.728 1.876-0.026 1.879-2.938 0-2.912-9.64 0.134-19.235-1.087-28.876-0.728-1.872 0.069-1.879 2.982 0 2.912zM137.106 618.149c1.878 0 1.878-2.912 0-2.912-1.877 0-1.877 2.912 0 2.912zM109.928 585.632c9.28-0.069 18.223 2.077 27.276 3.831 1.834 0.355 2.617-2.451 0.774-2.808-9.309-1.803-18.512-4.005-28.05-3.935-1.877 0.014-1.878 2.926 0 2.912zM108.715 590.728c5.56 0.1 10.982 1.395 16.501 1.941 1.869 0.185 1.851-2.729 0-2.912-5.522-0.546-10.935-1.841-16.501-1.941-1.879-0.033-1.875 2.879 0 2.912zM104.105 558.212c10.408 0.229 20.221 4.148 30.575 4.853 1.875 0.128 1.863-2.785 0-2.912-10.356-0.705-20.15-4.623-30.575-4.853-1.879-0.041-1.875 2.871 0 2.912zM99.835 546.512c11.039 2.501 22.105 4.814 33.389 5.876 1.87 0.176 1.853-2.738 0-2.912-11.024-1.037-21.831-3.328-32.615-5.772-1.828-0.414-2.605 2.393-0.774 2.808zM107.6 552.821c2.271 0.454 4.545 0.903 6.794 1.456 1.824 0.448 2.597-2.36 0.774-2.808-2.25-0.553-4.523-1.002-6.794-1.456-1.833-0.366-2.614 2.44-0.774 2.808zM102.163 533.461c11.822 1.045 23.364 3.777 35.041 5.772 1.836 0.314 2.622-2.492 0.774-2.808-11.935-2.039-23.733-4.808-35.815-5.876-1.871-0.166-1.855 2.748 0 2.912zM107.502 540.74c6.318 0.117 12.344 1.842 18.54 2.86 1.836 0.302 2.624-2.504 0.774-2.808-6.455-1.06-12.735-2.842-19.314-2.964-1.879-0.034-1.876 2.878 0 2.912zM106.531 521.328c7.763 0.556 15.287 2.365 22.908 3.831 1.834 0.353 2.617-2.453 0.774-2.808-7.878-1.515-15.66-3.36-23.682-3.935-1.874-0.135-1.861 2.778 0 2.912zM110.414 528.122c3.928 0.073 7.766 0.936 11.648 1.456 1.857 0.249 1.833-2.667 0-2.912-3.887-0.52-7.712-1.383-11.648-1.456-1.879-0.035-1.876 2.877 0 2.912zM99.251 486.87c7.621-0.503 15.199-0.844 22.81 0 1.865 0.207 1.845-2.707 0-2.912-7.611-0.844-15.189-0.503-22.81 0-1.863 0.123-1.875 3.036 0 2.912zM104.59 493.664c3.386 0.448 6.806 0.522 10.192 0.971 1.857 0.246 1.834-2.669 0-2.912-3.386-0.448-6.806-0.522-10.192-0.971-1.857-0.245-1.834 2.67 0 2.912zM104.105 503.856c1.86 0.035 3.641 0.47 5.437 0.919 1.822 0.455 2.595-2.353 0.774-2.808-2.044-0.51-4.095-0.983-6.211-1.023-1.879-0.035-1.876 2.877 0 2.912zM107.404 513.996c1.793-0.415 3.605-0.432 5.437-0.433 1.878-0.001 1.878-2.913 0-2.912-2.092 0.001-4.164 0.064-6.211 0.537-1.83 0.423-1.054 3.231 0.774 2.808zM115.752 508.709h4.853c1.878 0 1.878-2.912 0-2.912h-4.853c-1.877 0-1.877 2.912 0 2.912zM117.694 515.019c1.379 0.032 2.684 0.487 3.981 0.919 1.787 0.595 2.547-2.218 0.774-2.808-1.553-0.517-3.105-0.984-4.755-1.023-1.879-0.044-1.875 2.868 0 2.912zM100.222 458.722c7.836 0.109 15.541 1.424 23.295 2.427 1.858 0.24 1.835-2.675 0-2.912-7.755-1.003-15.457-2.317-23.295-2.427-1.879-0.027-1.876 2.885 0 2.912zM107.017 466.487c4.232-0.405 8.414-0.034 12.618 0.485 1.861 0.23 1.839-2.685 0-2.912-4.204-0.519-8.386-0.89-12.618-0.485-1.853 0.177-1.87 3.09 0 2.912zM102.649 473.766c6.408 0.523 12.686 1.852 19.026 2.86 1.836 0.292 2.625-2.514 0.774-2.808-6.598-1.049-13.131-2.419-19.8-2.964-1.873-0.152-1.858 2.761 0 2.912z" fill="#280D0D" p-id="2396"></path><path d="M130.797 478.134c1.878 0 1.878-2.912 0-2.912s-1.878 2.912 0 2.912z" fill="#280D0D" p-id="2397"></path><path d="M105.174 478.082c1.966 0.456 4.107 0.451 5.961 1.309 1.692 0.783 3.172-1.726 1.47-2.514-2.135-0.988-4.399-1.079-6.657-1.603-1.828-0.423-2.603 2.384-0.774 2.808z" fill="#280D0D" p-id="2398"></path><path d="M104.492 408.682c4.025-0.962 8.098-1.371 12.231-1.404 1.877-0.015 1.878-2.927 0-2.912-4.387 0.035-8.735 0.487-13.005 1.508-1.826 0.436-1.052 3.244 0.774 2.808z" fill="#280D0D" p-id="2399"></path><path d="M103.619 413.587h7.765c1.878 0 1.878-2.912 0-2.912h-7.765c-1.877 0-1.877 2.912 0 2.912z" fill="#280D0D" p-id="2400"></path><path d="M99.737 423.293c7.774-0.737 15.263 1.325 22.908 2.375 1.835 0.252 2.627-2.553 0.774-2.808-7.902-1.085-15.646-3.241-23.682-2.479-1.853 0.176-1.87 3.09 0 2.912zM112.355 420.381h3.883c1.878 0 1.878-2.912 0-2.912h-3.883c-1.878 0-1.878 2.912 0 2.912zM97.31 434.941c6.96 0.032 13.909 0.452 20.869 0.485 1.878 0.009 1.877-2.903 0-2.912-6.959-0.034-13.909-0.454-20.869-0.485-1.878-0.009-1.877 2.903 0 2.912z" fill="#280D0D" p-id="2401"></path><path d="M105.075 440.279h4.853c1.878 0 1.878-2.912 0-2.912h-4.853c-1.878 0.001-1.878 2.912 0 2.912z" fill="#280D0D" p-id="2402"></path><path d="M107.017 430.573h5.339c1.878 0 1.878-2.912 0-2.912h-5.339c-1.878 0-1.878 2.912 0 2.912z" fill="#280D0D" p-id="2403"></path><path d="M116.723 444.647h7.765c1.878 0 1.878-2.912 0-2.912h-7.765c-1.878 0-1.878 2.912 0 2.912zM104.59 449.5c3.734 0.001 7.45 0.05 11.162 0.485 1.863 0.218 1.842-2.696 0-2.912-3.713-0.435-7.429-0.484-11.162-0.485-1.878 0-1.878 2.912 0 2.912zM113.326 455.324h6.309c1.878 0 1.878-2.912 0-2.912h-6.309c-1.878 0-1.878 2.912 0 2.912zM109.928 564.521c8.031 0.528 16.145 0.941 23.879 3.345 1.798 0.559 2.561-2.252 0.774-2.808-7.974-2.478-16.374-2.905-24.653-3.449-1.875-0.123-1.863 2.79 0 2.912z" fill="#280D0D" p-id="2404"></path><path d="M123.517 555.785c1.878 0 1.878-2.912 0-2.912s-1.877 2.912 0 2.912z" fill="#280D0D" p-id="2405"></path><path d="M113.326 500.944c1.878 0 1.878-2.912 0-2.912s-1.878 2.912 0 2.912z" fill="#280D0D" p-id="2406"></path><path d="M296.776 227.619c6.259 0 6.259-9.706 0-9.706-6.259-0.001-6.259 9.706 0 9.706z" fill="#FFFFFF" p-id="2407"></path><path d="M291.923 240.237v58.238c0 6.259 9.706 6.259 9.706 0v-58.238c0-6.259-9.706-6.259-9.706 0z" fill="#FFFFFF" p-id="2408"></path></svg>